<svg width="82" height="82" viewBox="0 0 82 82" fill="none" xmlns="http://www.w3.org/2000/svg">
<g clip-path="url(#clip0_6_1720)">
<path d="M78.087 34.0249L45.3608 34.0234C43.9156 34.0234 42.7443 35.1946 42.7443 36.6397V47.0942C42.7443 48.5391 43.9156 49.7106 45.3606 49.7106H63.79C61.772 54.9478 58.0054 59.3338 53.1999 62.1206L61.0582 75.724C73.6638 68.4336 81.1164 55.642 81.1164 41.3227C81.1164 39.2838 80.9661 37.8263 80.6655 36.1851C80.4371 34.9382 79.3545 34.0249 78.087 34.0249Z" fill="#167EE6"/>
<path d="M41 65.4187C31.981 65.4187 24.1076 60.4909 19.8789 53.199L6.27598 61.0395C13.1984 73.0372 26.1663 81.1164 41 81.1164C48.2769 81.1164 55.1432 79.1571 61.0582 75.7427V75.724L53.1999 62.1205C49.6054 64.2053 45.4459 65.4187 41 65.4187Z" fill="#12B347"/>
<path d="M61.0582 75.7427V75.724L53.1999 62.1205C49.6054 64.2051 45.4462 65.4186 41 65.4186V81.1164C48.2769 81.1164 55.1435 79.1571 61.0582 75.7427Z" fill="#0F993E"/>
<path d="M16.5813 41C16.5813 36.5544 17.7946 32.3953 19.8789 28.801L6.27598 20.9605C2.84274 26.8568 0.883621 33.7045 0.883621 41C0.883621 48.2955 2.84274 55.1432 6.27598 61.0395L19.8789 53.199C17.7946 49.6046 16.5813 45.4456 16.5813 41Z" fill="#FFD500"/>
<path d="M41 16.5813C46.8813 16.5813 52.2835 18.6712 56.5031 22.1473C57.5441 23.0048 59.0571 22.9429 60.0106 21.9894L67.418 14.582C68.4999 13.5001 68.4228 11.7291 67.2671 10.7266C60.1974 4.59329 50.9989 0.883621 41 0.883621C26.1663 0.883621 13.1984 8.96284 6.27598 20.9605L19.8789 28.801C24.1076 21.5091 31.981 16.5813 41 16.5813Z" fill="#FF4B26"/>
<path d="M56.5031 22.1473C57.5441 23.0048 59.0572 22.9429 60.0106 21.9894L67.418 14.582C68.4998 13.5001 68.4227 11.7291 67.2671 10.7266C60.1974 4.59313 50.9989 0.883621 41 0.883621V16.5813C46.8811 16.5813 52.2835 18.6712 56.5031 22.1473Z" fill="#D93F21"/>
</g>
<defs>
<clipPath id="clip0_6_1720">
<rect width="80.2328" height="80.2328" fill="white" transform="translate(0.883621 0.883621)"/>
</clipPath>
</defs>
</svg>
